<svg xmlns="http://www.w3.org/2000/svg" viewBox="0 0 32 32" id="coconut"><path fill="#bf6328" d="M22.832 30.212c.024-.484.036-.972.036-1.462 0-8.31-3.496-15.802-9.096-21.09-.093-.088-.238.019-.183.135a44.969 44.969 0 0 1 4.28 19.202 45.49 45.49 0 0 1-.116 3.253"></path><circle cx="16.368" cy="28.667" r="1.5" fill="#b38a65"></circle><circle cx="13.347" cy="11.482" r="1.5" fill="#b38a65"></circle><path fill="#75c04d" d="M8.597 13.542h1.339l3.867-5.248a10.356 10.356 0 0 0-8.28 11.237l3.075-4.173v-1.816zm11.048-9.31 1.137.281 3.177-1.721c-2.292-1.748-5.84-1.247-8.152 1.151-1.171 1.215-1.89 2.776-2.004 4.352l5.587-3.027.255-1.036z"></path><path fill="#75c04d" d="m8.073 5.596.642 1.515 5.088 1.68c-.352-3.161-3.344-5.596-6.875-5.596-1.788 0-3.509.624-4.796 1.741l4.214 1.392 1.727-.732zm11.736 3.657.539 1.245 4.435 1.407c-.331-2.856-3.146-5.056-6.468-5.056-1.682 0-3.301.564-4.512 1.573l4.574 1.451 1.432-.62z"></path><path d="M29.868 29.75h-6.525c.011-.333.025-.664.025-1 0-7.048-2.433-13.661-6.903-18.959l1.76.558c.116.037.24.031.35-.018l.974-.421.34.787c.058.133.17.234.308.278l4.435 1.407a.504.504 0 0 0 .469-.091.501.501 0 0 0 .179-.443c-.359-3.1-3.293-5.442-6.847-5.494l1.196-.648a.496.496 0 0 0 .247-.32l.136-.549.652.161c.121.03.248.014.357-.046l3.177-1.721a.499.499 0 0 0 .066-.837C21.746.475 17.958.992 15.449 3.595a7.802 7.802 0 0 0-1.81 3.004c-1.195-2.3-3.793-3.903-6.709-3.903-1.919 0-3.738.662-5.123 1.863a.499.499 0 0 0 .17.852l4.214 1.392c.118.04.24.034.353-.014l1.267-.537.447 1.054a.497.497 0 0 0 .303.28l2.891.955a10.83 10.83 0 0 0-2.955 1.9 10.897 10.897 0 0 0-3.469 9.143.5.5 0 0 0 .899.246L9 15.655a.498.498 0 0 0 .098-.296v-1.317h.838a.497.497 0 0 0 .402-.204l1.165-1.581a2 2 0 0 0 3.494.351 44.31 44.31 0 0 1 2.369 14.337 1.974 1.974 0 0 0-.999-.278c-1.103 0-2 .897-2 2 0 .4.121.77.323 1.083H2.868a.5.5 0 0 0 0 1h27a.5.5 0 0 0 0-1zm-7.524 0H18.28c.013-.212.024-.424.034-.637a1.97 1.97 0 0 0 .046-.363h1.508a.5.5 0 0 0 0-1h-1.513c.004-.251.013-.503.013-.753 0-.083-.006-.164-.006-.247h1.647a.5.5 0 0 0 0-1h-1.671c-.009-.333-.008-.668-.024-1h1.554a.5.5 0 0 0 0-1h-1.626c-.023-.334-.042-.668-.073-1h1.183a.5.5 0 0 0 0-1H18.06a47.048 47.048 0 0 0-.122-1h.931a.5.5 0 0 0 0-1h-1c-.027 0-.05.011-.076.015a43.013 43.013 0 0 0-.176-1.015h.63a.5.5 0 0 0 0-1h-.819c-.069-.335-.148-.667-.225-1h.665a.5.5 0 0 0 0-1h-.896c-.085-.335-.185-.667-.277-1h.174a.5.5 0 0 0 0-1h-.451a45.213 45.213 0 0 0-1.522-4.239c4.834 5.261 7.473 12.017 7.473 19.239-.001.335-.014.667-.025 1zm-4.03-22.401c2.729 0 5.117 1.624 5.803 3.821l-3.401-1.079-.448-1.036a.5.5 0 0 0-.657-.26l-1.261.545-3.199-1.015-.126-.125.127-.069a6.729 6.729 0 0 1 3.162-.782zm-2.146-3.06c1.28-1.329 2.986-2.032 4.595-2.032a4.9 4.9 0 0 1 2.205.502L20.714 3.98l-.95-.234a.497.497 0 0 0-.605.366l-.202.82-4.271 2.314c-.079.042-.158.081-.235.126.269-1.126.861-2.195 1.717-3.083zM9.087 6.708l-.554-1.307a.496.496 0 0 0-.655-.265l-1.554.659-3.126-1.033a6.916 6.916 0 0 1 3.73-1.066c2.914 0 5.456 1.815 6.19 4.267l-.127.034-3.904-1.289zm.596 6.334H8.598a.5.5 0 0 0-.5.5v1.652l-2.124 2.881a9.904 9.904 0 0 1 3.196-6.897 9.847 9.847 0 0 1 3.377-2.023l-2.864 3.887zm3.664-.561a1.001 1.001 0 0 1 0-2 1.001 1.001 0 0 1 0 2zm.188-2.981.16-.217.113.257a2.064 2.064 0 0 0-.273-.04zm2.833 18.167c.503 0 .903.379.972.863-.004.118-.011.235-.016.353-.102.445-.481.784-.956.784a1 1 0 0 1 0-2z"></path></svg>